<svg xmlns="http://www.w3.org/2000/svg" viewBox="282 159 278 278">
  <g fill="#B8872A">
    <path d="M420.94,433.01c-74.64,0-135.37-60.73-135.37-135.37s60.73-135.37,135.37-135.37,135.37,60.73,135.37,135.37-60.73,135.37-135.37,135.37ZM420.94,170.27c-70.23,0-127.37,57.14-127.37,127.37s57.14,127.37,127.37,127.37,127.37-57.14,127.37-127.37-57.14-127.37-127.37-127.37Z"/>
    <path d="M437.01,334.94l-.86,34.13h-98.54v-3.94h3.42c4.96,0,8.4-.63,10.3-1.88,1.91-1.25,3.14-3.21,3.68-5.86.54-2.65.81-8.82.81-18.52v-56.88c0-9.24-.27-15.2-.81-17.88-.55-2.68-1.68-4.53-3.42-5.56-1.74-1.03-5.55-1.54-11.42-1.54h-2.57v-3.93h55.68v3.93h-5.13c-5.7,0-9.44.47-11.2,1.41-1.77.94-2.95,2.69-3.55,5.26-.6,2.57-.9,8.67-.9,18.31v60.73c0,8.38.23,13.63.69,15.74.46,2.11,1.7,3.75,3.72,4.92,2.02,1.17,6.37,1.75,13.04,1.75h8.81c7.12,0,12.41-.63,15.87-1.88,3.45-1.25,6.73-3.99,9.84-8.21,3.11-4.22,5.95-10.92,8.51-20.1h4.02Z"/>
    <path d="M409.69,216.44h2.31c.97,3.2,1.46,7.04,1.46,11.55,3.65-3.88,7.57-6.77,11.76-8.68,4.19-1.91,8.62-2.87,13.3-2.87,9.69,0,17.76,3.41,24.21,10.22,6.44,6.82,9.67,15.81,9.67,26.99s-3.24,20.1-9.71,27.46c-6.47,7.36-14.98,11.03-25.53,11.03-4.33,0-8.48-.87-12.45-2.61-3.96-1.74-7.71-4.32-11.25-7.74v26.6c0,8.1.16,13.03.47,14.8.31,1.77,1.21,3.09,2.69,3.98,1.48.88,4.25,1.33,8.3,1.33v3.93h-36.61v-3.93h2.57c4.05,0,6.68-.59,7.91-1.76,1.23-1.17,1.94-2.57,2.14-4.19.2-1.62.3-6.34.3-14.16v-63.64c0-7.47-.1-12.17-.3-14.11-.2-1.94-1.01-3.42-2.44-4.45-1.43-1.03-3.97-1.54-7.61-1.54h-2.57v-3.93c5.65-.57,12.77-2,21.38-4.28ZM413.45,276.15c3.08,3.76,6.34,6.6,9.8,8.51,3.45,1.91,7.08,2.87,10.91,2.87,6.44,0,12.06-2.77,16.85-8.3,4.79-5.53,7.18-14.34,7.18-26.43,0-10.49-2.31-18.34-6.93-23.52-4.62-5.19-10.12-7.78-16.51-7.78-3.93,0-7.67,1-11.21,2.99-3.54,2-6.9,5.02-10.09,9.07v42.6Z"/>
    <path d="M436.19,369.08h-3.34v-93.74c0-6.84-.19-11.26-.56-13.26-.37-2-1.31-3.48-2.82-4.45s-4.15-1.46-7.91-1.46v-3.94c3.36,0,7.41-.4,12.14-1.19,4.73-.8,7.95-1.6,9.67-2.4h1.8v55.43c3.99-3.59,8.04-6.27,12.14-8.04,4.11-1.76,8.27-2.65,12.49-2.65,10.09,0,18.36,3.51,24.8,10.52,6.44,7.01,9.67,15.97,9.67,26.86s-3.31,20.07-9.92,27.37c-6.62,7.3-15.2,10.95-25.74,10.95-5.19,0-9.74-1.08-13.64-3.25-3.91-2.17-7.17-5.39-9.79-9.66-3.71,3.7-6.7,8.01-8.98,12.91ZM445.17,309.12v27.46c0,7.07.47,12.16,1.41,15.27.94,3.11,3.21,6.09,6.8,8.94,3.59,2.85,7.78,4.27,12.57,4.27,7.35,0,13.22-3.02,17.58-9.07,4.36-6.04,6.54-14.74,6.54-26.09,0-10.43-2.04-18.38-6.12-23.82-4.08-5.44-9.51-8.17-16.29-8.17-3.88,0-7.68.93-11.42,2.78-3.73,1.85-7.43,4.66-11.07,8.42Z"/>
  </g>
</svg>
